<svg xmlns:xlink="http://www.w3.org/1999/xlink" xmlns="http://www.w3.org/2000/svg" viewBox="0 0 50 49.81234349221826" preserveAspectRatio="xMidYMid meet" class="css-grg60t" id="dacbdebh" width="162"  height="161.39" ><defs id="SvgjsDefs1162"></defs><g id="SvgjsG1163" transform="matrix(3.3386289033177676,0,0,3.3386289033177676,-3.672491475253081,-18.02859480433009)" fill="#0194FD"><path d="M14.6 17.3 l1.34 1.94 c0.52 0.72 -0.58 1.5 -1.1 0.76 l-1.64 -2.32 c-0.18 -0.26 -0.18 -0.62 0.02 -0.86 c3.42 -3.92 0.62 -10.06 -4.68 -10.06 c-8.12 0 -8.14 12.18 0 12.18 c2.44 0 3.04 -1.28 3.62 -0.38 c0.3 0.42 1 1.14 0.32 1.6 c-0.5 0.38 -0.84 -0.02 -1.1 -0.4 c-0.9 0.34 -1.86 0.56 -2.84 0.56 c-9.92 0 -9.92 -14.92 0 -14.92 c6.24 0 9.68 7.08 6.06 11.9 l0 0 z M10.6 13.92 c-0.52 -0.7 0.6 -1.48 1.1 -0.76 l0.14 0.18 c0.26 -1.96 -1.18 -3.88 -3.3 -3.88 c-4.58 0 -4.24 7.26 0.36 6.78 l-1.6 -2.32 c-0.52 -0.7 0.6 -1.48 1.1 -0.76 l2.24 3.24 c0.4 1.02 -1.48 1.2 -2.1 1.2 c-6.16 0 -6.16 -9.48 0 -9.48 c3.58 0 5.8 3.9 4.1 7.02 c-0.24 0.44 -0.86 0.48 -1.16 0.06 l-0.88 -1.28 l0 0 z" fill="#0194FD"></path></g></svg>