<?xml version="1.0" encoding="UTF-8"?>
<svg xmlns="http://www.w3.org/2000/svg" xmlns:xlink="http://www.w3.org/1999/xlink" width="40px" height="40px" viewBox="0 0 40 39" version="1.1">
<g id="surface1">
<path style=" stroke:none;fill-rule:nonzero;fill:rgb(0.392157%,58.039218%,99.215686%);fill-opacity:1;" d="M 36.058594 31.179688 L 39.636719 36.265625 C 41.023438 38.152344 38.085938 40.195312 36.699219 38.257812 L 32.316406 32.175781 C 31.835938 31.496094 31.835938 30.550781 32.371094 29.921875 C 41.503906 19.652344 34.027344 3.5625 19.871094 3.5625 C -1.816406 3.5625 -1.871094 35.476562 19.871094 35.476562 C 26.386719 35.476562 27.992188 32.125 29.539062 34.484375 C 30.339844 35.582031 32.210938 37.46875 30.394531 38.675781 C 29.058594 39.671875 28.152344 38.621094 27.457031 37.628906 C 25.054688 38.519531 22.488281 39.09375 19.871094 39.09375 C -6.625 39.09375 -6.625 0 19.871094 0 C 36.539062 0 45.726562 18.550781 36.058594 31.179688 Z M 25.375 22.324219 C 23.984375 20.492188 26.976562 18.445312 28.3125 20.332031 L 28.683594 20.804688 C 29.378906 15.667969 25.535156 10.636719 19.871094 10.636719 C 7.640625 10.636719 8.546875 29.660156 20.832031 28.402344 L 16.558594 22.324219 C 15.171875 20.492188 18.164062 18.445312 19.496094 20.332031 L 25.480469 28.824219 C 26.546875 31.496094 21.527344 31.96875 19.871094 31.96875 C 3.417969 31.96875 3.417969 7.128906 19.871094 7.128906 C 29.433594 7.128906 35.363281 17.347656 30.820312 25.519531 C 30.179688 26.675781 28.523438 26.777344 27.722656 25.679688 Z M 25.375 22.324219 "/>
</g>
</svg>
